<svg width="38" height="38" viewBox="0 0 38 38" fill="none" xmlns="http://www.w3.org/2000/svg">
<g filter="url(#filter0_d_60_53)">
<rect x="4.5" y="0.5" width="29" height="29" rx="6.5" fill="white" stroke="#F8F8F8"/>
<path d="M19.3899 20.6864C19.4509 20.6476 20.8854 19.7313 22.3371 18.4025C23.2122 17.6008 23.917 16.8101 24.4295 16.0519C24.753 15.5727 25.0077 15.0983 25.1828 14.6409C25.3937 14.0935 25.5 13.5555 25.5 13.0392C25.5015 12.4918 25.3906 11.96 25.1734 11.4592C24.9639 10.9779 24.6619 10.5418 24.2842 10.1753L19.3899 20.6864ZM19.3899 20.6864L19.0196 20.9221M19.3899 20.6864L19.0196 20.9221M24.7148 11.6585C24.5314 11.2373 24.267 10.8553 23.936 10.5341L23.9356 10.5337C23.6035 10.2108 23.2118 9.9539 22.7817 9.77731L22.781 9.77704C22.3348 9.59311 21.856 9.49891 21.3725 9.50001L21.3714 9.50001C20.6917 9.50001 20.0296 9.68466 19.4551 10.0325L19.455 10.0325C19.3176 10.1157 19.1874 10.2068 19.0643 10.3059L18.7508 10.5582L18.4373 10.3059C18.3142 10.2068 18.184 10.1157 18.0465 10.0325L18.0465 10.0325C17.4719 9.68466 16.8099 9.50001 16.1302 9.50001C15.6398 9.50001 15.1671 9.59299 14.7205 9.77705L14.72 9.77727C14.2882 9.95465 13.8997 10.2094 13.5658 10.5339L13.5651 10.5346L13.5651 10.5346C13.2339 10.8552 12.9696 11.2369 12.7869 11.6581L24.7148 11.6585ZM24.7148 11.6585C24.9048 12.0966 25.0013 12.5602 25 13.0377V13.0392C25 13.4865 24.9079 13.9636 24.7162 14.461L24.7158 14.4622C24.557 14.8772 24.3218 15.3178 24.0153 15.7718C23.5302 16.4894 22.854 17.2509 21.9995 18.0336C20.5792 19.3337 19.1726 20.232 19.1216 20.2645L19.1215 20.2646L18.7521 20.4996L18.7521 20.4996L18.7517 20.4998L18.75 20.5L18.7483 20.4998L18.7479 20.4996L18.7479 20.4996L18.3785 20.2646L18.3786 20.2645L18.3706 20.2597C18.371 20.2599 18.3705 20.2596 18.3691 20.2587C18.3666 20.2571 18.3612 20.2537 18.3522 20.248C18.3394 20.2398 18.3214 20.2282 18.2985 20.2133C18.2529 20.1835 18.1884 20.1409 18.1077 20.0864C17.9463 19.9774 17.7208 19.8211 17.4524 19.625C16.9146 19.2322 16.2084 18.6823 15.5007 18.0338L15.5006 18.0338C14.6462 17.2511 13.9699 16.4896 13.4848 15.7721L24.7148 11.6585ZM19.0196 20.9221C18.8555 21.026 18.6445 21.026 18.4804 20.9221H19.0196ZM12.5 13.0392C12.5 12.5605 12.5968 12.0964 12.7869 11.6581L12.7837 14.461C12.592 13.9636 12.5 13.4865 12.5 13.0392ZM13.4848 15.772C13.1789 15.3189 12.9447 14.8778 12.7838 14.461L13.4848 15.772Z" stroke="#ECECEC"/>
</g>
<defs>
<filter id="filter0_d_60_53" x="0" y="0" width="38" height="38" filterUnits="userSpaceOnUse" color-interpolation-filters="sRGB">
<feFlood flood-opacity="0" result="BackgroundImageFix"/>
<feColorMatrix in="SourceAlpha" type="matrix" values="0 0 0 0 0 0 0 0 0 0 0 0 0 0 0 0 0 0 127 0" result="hardAlpha"/>
<feOffset dy="4"/>
<feGaussianBlur stdDeviation="2"/>
<feComposite in2="hardAlpha" operator="out"/>
<feColorMatrix type="matrix" values="0 0 0 0 0 0 0 0 0 0 0 0 0 0 0 0 0 0 0.25 0"/>
<feBlend mode="normal" in2="BackgroundImageFix" result="effect1_dropShadow_60_53"/>
<feBlend mode="normal" in="SourceGraphic" in2="effect1_dropShadow_60_53" result="shape"/>
</filter>
</defs>
</svg>
